G75*
G70*
%OFA0B0*%
%FSLAX24Y24*%
%IPPOS*%
%LPD*%
%AMOC8*
5,1,8,0,0,1.08239X$1,22.5*
%
%ADD10C,0.0060*%
%ADD11C,0.0050*%
%ADD12C,0.0200*%
%ADD13C,0.0080*%
D10*
X000860Y000210D02*
X011610Y000210D01*
X011654Y000212D01*
X011697Y000218D01*
X011739Y000227D01*
X011781Y000240D01*
X011821Y000257D01*
X011860Y000277D01*
X011897Y000300D01*
X011931Y000327D01*
X011964Y000356D01*
X011993Y000389D01*
X012020Y000423D01*
X012043Y000460D01*
X012063Y000499D01*
X012080Y000539D01*
X012093Y000581D01*
X012102Y000623D01*
X012108Y000666D01*
X012110Y000710D01*
X012110Y004960D01*
X012108Y005004D01*
X012102Y005047D01*
X012093Y005089D01*
X012080Y005131D01*
X012063Y005171D01*
X012043Y005210D01*
X012020Y005247D01*
X011993Y005281D01*
X011964Y005314D01*
X011931Y005343D01*
X011897Y005370D01*
X011860Y005393D01*
X011821Y005413D01*
X011781Y005430D01*
X011739Y005443D01*
X011697Y005452D01*
X011654Y005458D01*
X011610Y005460D01*
X000860Y005460D01*
X000816Y005458D01*
X000773Y005452D01*
X000731Y005443D01*
X000689Y005430D01*
X000649Y005413D01*
X000610Y005393D01*
X000573Y005370D01*
X000539Y005343D01*
X000506Y005314D01*
X000477Y005281D01*
X000450Y005247D01*
X000427Y005210D01*
X000407Y005171D01*
X000390Y005131D01*
X000377Y005089D01*
X000368Y005047D01*
X000362Y005004D01*
X000360Y004960D01*
X000360Y000710D01*
X000362Y000666D01*
X000368Y000623D01*
X000377Y000581D01*
X000390Y000539D01*
X000407Y000499D01*
X000427Y000460D01*
X000450Y000423D01*
X000477Y000389D01*
X000506Y000356D01*
X000539Y000327D01*
X000573Y000300D01*
X000610Y000277D01*
X000649Y000257D01*
X000689Y000240D01*
X000731Y000227D01*
X000773Y000218D01*
X000816Y000212D01*
X000860Y000210D01*
D11*
X002560Y000610D02*
X003060Y000610D01*
X003060Y001710D01*
X002560Y001710D01*
X002560Y000610D01*
X003160Y000610D02*
X003660Y000610D01*
X003660Y001710D01*
X003160Y001710D01*
X003160Y000610D01*
X003760Y000610D02*
X004860Y000610D01*
X004860Y001110D01*
X003760Y001110D01*
X003760Y000610D01*
X005010Y000710D02*
X005010Y001610D01*
X005012Y001627D01*
X005016Y001644D01*
X005023Y001660D01*
X005033Y001674D01*
X005046Y001687D01*
X005060Y001697D01*
X005076Y001704D01*
X005093Y001708D01*
X005110Y001710D01*
X005410Y001710D01*
X005427Y001708D01*
X005444Y001704D01*
X005460Y001697D01*
X005474Y001687D01*
X005487Y001674D01*
X005497Y001660D01*
X005504Y001644D01*
X005508Y001627D01*
X005510Y001610D01*
X005510Y000710D01*
X005508Y000693D01*
X005504Y000676D01*
X005497Y000660D01*
X005487Y000646D01*
X005474Y000633D01*
X005460Y000623D01*
X005444Y000616D01*
X005427Y000612D01*
X005410Y000610D01*
X005110Y000610D01*
X005093Y000612D01*
X005076Y000616D01*
X005060Y000623D01*
X005046Y000633D01*
X005033Y000646D01*
X005023Y000660D01*
X005016Y000676D01*
X005012Y000693D01*
X005010Y000710D01*
X006010Y000610D02*
X006010Y001710D01*
X007510Y001710D01*
X007660Y001560D01*
X007610Y002010D02*
X006360Y002010D01*
X006110Y002260D01*
X006110Y003910D01*
X007610Y003910D01*
X007610Y002010D01*
X008311Y000912D02*
X010909Y000912D01*
X010909Y003708D01*
X008311Y003708D01*
X008311Y000912D01*
X007660Y000760D02*
X007510Y000610D01*
X006010Y000610D01*
X004860Y002010D02*
X003360Y002010D01*
X003360Y003910D01*
X004610Y003910D01*
X004860Y003660D01*
X004860Y002010D01*
X002660Y002110D02*
X001560Y002110D01*
X001560Y003610D01*
X001710Y003760D01*
X002510Y003760D02*
X002660Y003610D01*
X002660Y002110D01*
X003110Y004060D02*
X003610Y004060D01*
X003627Y004062D01*
X003644Y004066D01*
X003660Y004073D01*
X003674Y004083D01*
X003687Y004096D01*
X003697Y004110D01*
X003704Y004126D01*
X003708Y004143D01*
X003710Y004160D01*
X003710Y005260D01*
X003708Y005277D01*
X003704Y005294D01*
X003697Y005310D01*
X003687Y005324D01*
X003674Y005337D01*
X003660Y005347D01*
X003644Y005354D01*
X003627Y005358D01*
X003610Y005360D01*
X003110Y005360D01*
X003093Y005358D01*
X003076Y005354D01*
X003060Y005347D01*
X003046Y005337D01*
X003033Y005324D01*
X003023Y005310D01*
X003016Y005294D01*
X003012Y005277D01*
X003010Y005260D01*
X003010Y004160D01*
X003012Y004143D01*
X003016Y004126D01*
X003023Y004110D01*
X003033Y004096D01*
X003046Y004083D01*
X003060Y004073D01*
X003076Y004066D01*
X003093Y004062D01*
X003110Y004060D01*
X003860Y004160D02*
X004360Y004160D01*
X004360Y005260D01*
X003860Y005260D01*
X003860Y004160D01*
X004460Y004160D02*
X004960Y004160D01*
X004960Y005260D01*
X004460Y005260D01*
X004460Y004160D01*
X005060Y004160D02*
X005560Y004160D01*
X005560Y005260D01*
X005060Y005260D01*
X005060Y004160D01*
X005660Y004160D02*
X005660Y005260D01*
X005662Y005277D01*
X005666Y005294D01*
X005673Y005310D01*
X005683Y005324D01*
X005696Y005337D01*
X005710Y005347D01*
X005726Y005354D01*
X005743Y005358D01*
X005760Y005360D01*
X006260Y005360D01*
X006277Y005358D01*
X006294Y005354D01*
X006310Y005347D01*
X006324Y005337D01*
X006337Y005324D01*
X006347Y005310D01*
X006354Y005294D01*
X006358Y005277D01*
X006360Y005260D01*
X006360Y004160D01*
X006358Y004143D01*
X006354Y004126D01*
X006347Y004110D01*
X006337Y004096D01*
X006324Y004083D01*
X006310Y004073D01*
X006294Y004066D01*
X006277Y004062D01*
X006260Y004060D01*
X005760Y004060D01*
X005743Y004062D01*
X005726Y004066D01*
X005710Y004073D01*
X005696Y004083D01*
X005683Y004096D01*
X005673Y004110D01*
X005666Y004126D01*
X005662Y004143D01*
X005660Y004160D01*
X006510Y004160D02*
X007010Y004160D01*
X007010Y005260D01*
X006510Y005260D01*
X006510Y004160D01*
X007110Y004160D02*
X007610Y004160D01*
X007610Y005260D01*
X007110Y005260D01*
X007110Y004160D01*
X007710Y004160D02*
X008210Y004160D01*
X008210Y005260D01*
X007710Y005260D01*
X007710Y004160D01*
X008310Y004160D02*
X008810Y004160D01*
X008810Y005260D01*
X008310Y005260D01*
X008310Y004160D01*
X008910Y004160D02*
X010660Y004160D01*
X010860Y004360D01*
X010860Y005060D01*
X010660Y005260D01*
X008910Y005260D01*
X008910Y004160D01*
D12*
X004960Y004060D03*
X006010Y001860D03*
D13*
X008135Y001410D02*
X008135Y000860D01*
X002410Y004235D02*
X001860Y004235D01*
X010800Y004360D02*
X010800Y005060D01*
M02*
