G75*
G70*
%OFA0B0*%
%FSLAX24Y24*%
%IPPOS*%
%LPD*%
%AMOC8*
5,1,8,0,0,1.08239X$1,22.5*
%
%ADD10C,0.0060*%
D10*
X000860Y000210D02*
X011610Y000210D01*
X011654Y000212D01*
X011697Y000218D01*
X011739Y000227D01*
X011781Y000240D01*
X011821Y000257D01*
X011860Y000277D01*
X011897Y000300D01*
X011931Y000327D01*
X011964Y000356D01*
X011993Y000389D01*
X012020Y000423D01*
X012043Y000460D01*
X012063Y000499D01*
X012080Y000539D01*
X012093Y000581D01*
X012102Y000623D01*
X012108Y000666D01*
X012110Y000710D01*
X012110Y004960D01*
X012108Y005004D01*
X012102Y005047D01*
X012093Y005089D01*
X012080Y005131D01*
X012063Y005171D01*
X012043Y005210D01*
X012020Y005247D01*
X011993Y005281D01*
X011964Y005314D01*
X011931Y005343D01*
X011897Y005370D01*
X011860Y005393D01*
X011821Y005413D01*
X011781Y005430D01*
X011739Y005443D01*
X011697Y005452D01*
X011654Y005458D01*
X011610Y005460D01*
X000860Y005460D01*
X000816Y005458D01*
X000773Y005452D01*
X000731Y005443D01*
X000689Y005430D01*
X000649Y005413D01*
X000610Y005393D01*
X000573Y005370D01*
X000539Y005343D01*
X000506Y005314D01*
X000477Y005281D01*
X000450Y005247D01*
X000427Y005210D01*
X000407Y005171D01*
X000390Y005131D01*
X000377Y005089D01*
X000368Y005047D01*
X000362Y005004D01*
X000360Y004960D01*
X000360Y000710D01*
X000362Y000666D01*
X000368Y000623D01*
X000377Y000581D01*
X000390Y000539D01*
X000407Y000499D01*
X000427Y000460D01*
X000450Y000423D01*
X000477Y000389D01*
X000506Y000356D01*
X000539Y000327D01*
X000573Y000300D01*
X000610Y000277D01*
X000649Y000257D01*
X000689Y000240D01*
X000731Y000227D01*
X000773Y000218D01*
X000816Y000212D01*
X000860Y000210D01*
M02*
