%
M48
M72
T01C0.0120
T02C0.0300
%
T01
X10510Y1910
X10210Y1910
X9910Y1910
X9560Y1910
X9160Y1910
X9160Y2210
X8810Y2210
X8810Y2510
X9160Y2510
X9510Y2510
X9860Y2510
X10210Y2510
X10560Y2510
X10560Y2210
X10210Y2210
X9860Y2210
X9510Y2210
X9510Y2810
X9160Y2810
X8810Y2810
X9860Y2810
X10210Y2810
X10560Y2810
X7560Y3210
X7160Y3210
X6860Y3360
X6560Y3360
X6160Y3210
X6860Y3060
X7160Y2910
X6860Y2760
X6860Y2460
X6160Y2560
X6160Y2810
X4810Y2710
X4810Y3210
X6560Y3660
X6860Y3660
X7160Y3510
X7160Y3810
X6860Y3960
X6010Y4610
X5610Y5010
X7060Y5010
X8185Y5010
X9660Y4710
X9660Y4410
X10560Y4710
X5210Y4060
X4810Y4060
X3360Y4060
X3110Y4060
X2810Y4060
X2960Y5060
X2160Y2710
X2910Y1960
X3210Y1960
X2460Y1460
X1760Y710
X4010Y560
X4885Y810
X4810Y1560
X4310Y1610
X5910Y1660
X6360Y1960
T02
X11360Y1135
X11360Y1923
X11360Y2710
X11360Y3497
X11360Y4285
X1110Y4535
X1110Y3747
X1110Y2960
X1110Y2173
X1110Y1385
M30
